<svg width="1141" height="101" viewBox="0 0 1141 101" fill="none" xmlns="http://www.w3.org/2000/svg">
<rect width="1141" height="101" rx="4" fill="#FF8383" fill-opacity="0.36"/>
<path d="M376.667 46.1924C380.288 46.1924 382.099 44.0602 382.099 39.7959C382.099 36.1663 380.288 34.3516 376.667 34.3516H373.066V46.1924H376.667ZM369.831 49V31.5439H376.667C382.445 31.5439 385.334 34.2946 385.334 39.7959C385.334 45.932 382.445 49 376.667 49H369.831ZM390.839 40.2231C390.839 44.284 392.642 46.3145 396.247 46.3145C399.763 46.3145 401.521 44.284 401.521 40.2231C401.521 36.2274 399.763 34.2295 396.247 34.2295C392.642 34.2295 390.839 36.2274 390.839 40.2231ZM387.482 40.2964C387.482 34.38 390.404 31.4219 396.247 31.4219C402.001 31.4219 404.877 34.38 404.877 40.2964C404.877 46.1802 402.001 49.1221 396.247 49.1221C390.664 49.1221 387.743 46.1802 387.482 40.2964ZM407.941 49V31.5439H411.176L420.393 44.2637V31.5439H423.505V49H420.271L411.054 36.0117V49H407.941ZM438.593 31.5439V34.3516H433.588V49H430.354V34.3516H425.349V31.5439H438.593ZM445.93 49V31.5439H449.287L455.207 44.7886L461.005 31.5439H464.24V49H461.25V36.8418L456.513 49H453.754L448.92 36.8418V49H445.93ZM471.137 31.5439V49H467.902V31.5439H471.137ZM474.506 48.2676V45.3379C476.256 45.9889 478.234 46.3145 480.439 46.3145C483.116 46.3145 484.455 45.4193 484.455 43.6289C484.455 42.3268 483.633 41.6758 481.989 41.6758H479.255C475.682 41.6758 473.896 40.0482 473.896 36.793C473.896 33.2122 476.439 31.4219 481.525 31.4219C483.479 31.4219 485.33 31.7067 487.08 32.2764V35.2061C485.33 34.555 483.479 34.2295 481.525 34.2295C478.596 34.2295 477.131 35.084 477.131 36.793C477.131 38.0951 477.839 38.7461 479.255 38.7461H481.989C485.79 38.7461 487.69 40.3737 487.69 43.6289C487.69 47.291 485.273 49.1221 480.439 49.1221C478.234 49.1221 476.256 48.8372 474.506 48.2676ZM490.131 48.2676V45.3379C491.881 45.9889 493.859 46.3145 496.064 46.3145C498.741 46.3145 500.08 45.4193 500.08 43.6289C500.08 42.3268 499.258 41.6758 497.614 41.6758H494.88C491.307 41.6758 489.521 40.0482 489.521 36.793C489.521 33.2122 492.064 31.4219 497.15 31.4219C499.104 31.4219 500.955 31.7067 502.705 32.2764V35.2061C500.955 34.555 499.104 34.2295 497.15 34.2295C494.221 34.2295 492.756 35.084 492.756 36.793C492.756 38.0951 493.464 38.7461 494.88 38.7461H497.614C501.415 38.7461 503.315 40.3737 503.315 43.6289C503.315 47.291 500.898 49.1221 496.064 49.1221C493.859 49.1221 491.881 48.8372 490.131 48.2676ZM518.391 46.1924C522.012 46.1924 523.823 44.0602 523.823 39.7959C523.823 36.1663 522.012 34.3516 518.391 34.3516H514.79V46.1924H518.391ZM511.555 49V31.5439H518.391C524.169 31.5439 527.058 34.2946 527.058 39.7959C527.058 45.932 524.169 49 518.391 49H511.555ZM541.767 31.5439V34.3271H533.027V38.7217H541.352V41.6147H532.99V46.1924H541.938V49H529.816V31.5439H541.767ZM546.723 49H543.403L550.812 31.5439H554.292L561.86 49H558.381L556.391 44.2393H550.593L551.704 41.4316H555.219L552.473 34.8765L546.723 49ZM567.231 31.5439V46.1924H574.165V49H563.996V31.5439H567.231ZM576.923 48.2676V45.3379C578.673 45.9889 580.651 46.3145 582.856 46.3145C585.533 46.3145 586.872 45.4193 586.872 43.6289C586.872 42.3268 586.05 41.6758 584.406 41.6758H581.672C578.099 41.6758 576.313 40.0482 576.313 36.793C576.313 33.2122 578.856 31.4219 583.942 31.4219C585.896 31.4219 587.747 31.7067 589.497 32.2764V35.2061C587.747 34.555 585.896 34.2295 583.942 34.2295C581.013 34.2295 579.548 35.084 579.548 36.793C579.548 38.0951 580.256 38.7461 581.672 38.7461H584.406C588.207 38.7461 590.107 40.3737 590.107 43.6289C590.107 47.291 587.69 49.1221 582.856 49.1221C580.651 49.1221 578.673 48.8372 576.923 48.2676ZM598.347 42.1396V31.5439H601.582V42.1396C601.582 44.9229 603.006 46.3145 605.854 46.3145C608.702 46.3145 610.126 44.9229 610.126 42.1396V31.5439H613.361V42.1396C613.361 46.7946 610.859 49.1221 605.854 49.1221C600.849 49.1221 598.347 46.7946 598.347 42.1396ZM617.023 49V31.5439H624.836C628.4 31.5439 630.183 33.1838 630.183 36.4634C630.183 40.0197 627.745 42.1722 622.871 42.9209L622.407 40.04C625.336 39.5111 626.801 38.3514 626.801 36.561C626.801 35.1125 626.077 34.3882 624.628 34.3882H620.258V49H617.023ZM643.745 31.5439V34.3516H638.74V49H635.505V34.3516H630.5V31.5439H643.745ZM648.334 40.2231C648.334 44.284 650.137 46.3145 653.742 46.3145C657.258 46.3145 659.016 44.284 659.016 40.2231C659.016 36.2274 657.258 34.2295 653.742 34.2295C650.137 34.2295 648.334 36.2274 648.334 40.2231ZM644.978 40.2964C644.978 34.38 647.899 31.4219 653.742 31.4219C659.496 31.4219 662.373 34.38 662.373 40.2964C662.373 46.1802 659.496 49.1221 653.742 49.1221C648.16 49.1221 645.238 46.1802 644.978 40.2964ZM671.235 31.5439H681.66V34.1074H674.018L673.725 38.4043C674.189 38.2253 674.864 38.1357 675.751 38.1357C680.146 38.1357 682.343 39.9261 682.343 43.5068C682.343 47.2503 680.065 49.1221 675.507 49.1221C673.88 49.1221 672.252 48.8779 670.625 48.3896V45.7041C672.252 46.2738 673.92 46.5586 675.629 46.5586C677.949 46.5586 679.108 45.5413 679.108 43.5068C679.108 41.6351 677.989 40.6992 675.751 40.6992C673.92 40.6992 672.211 40.9027 670.625 41.3096L671.235 31.5439ZM687.714 40.2231C687.714 44.284 689.191 46.3145 692.146 46.3145C695.01 46.3145 696.442 44.284 696.442 40.2231C696.442 36.2274 695.01 34.2295 692.146 34.2295C689.191 34.2295 687.714 36.2274 687.714 40.2231ZM684.357 40.2964C684.357 34.38 686.953 31.4219 692.146 31.4219C697.248 31.4219 699.799 34.38 699.799 40.2964C699.799 46.1802 697.248 49.1221 692.146 49.1221C686.953 49.1221 684.357 46.1802 684.357 40.2964ZM705.366 49H702.131L714.545 31.5439H717.78L705.366 49ZM704.45 35.0596C704.45 36.2559 705.012 36.854 706.135 36.854C707.225 36.854 707.771 36.2559 707.771 35.0596C707.771 34.0505 707.225 33.5459 706.135 33.5459C705.012 33.5459 704.45 34.0505 704.45 35.0596ZM702.131 35.084C702.131 32.6426 703.465 31.4219 706.135 31.4219C708.771 31.4219 710.09 32.6426 710.09 35.084C710.09 37.68 708.771 38.978 706.135 38.978C703.465 38.978 702.131 37.68 702.131 35.084ZM712.385 45.3257C712.385 46.4406 712.946 46.998 714.069 46.998C715.16 46.998 715.705 46.4406 715.705 45.3257C715.705 44.2352 715.16 43.6899 714.069 43.6899C712.946 43.6899 712.385 44.2352 712.385 45.3257ZM710.065 45.3501C710.065 42.8273 711.4 41.5659 714.069 41.5659C716.706 41.5659 718.024 42.8273 718.024 45.3501C718.024 47.8647 716.706 49.1221 714.069 49.1221C711.4 49.1221 710.065 47.8647 710.065 45.3501ZM729.316 40.2231C729.316 44.284 731.118 46.3145 734.724 46.3145C738.239 46.3145 739.997 44.284 739.997 40.2231C739.997 36.2274 738.239 34.2295 734.724 34.2295C731.118 34.2295 729.316 36.2274 729.316 40.2231ZM725.959 40.2964C725.959 34.38 728.881 31.4219 734.724 31.4219C740.477 31.4219 743.354 34.38 743.354 40.2964C743.354 46.1802 740.477 49.1221 734.724 49.1221C729.141 49.1221 726.219 46.1802 725.959 40.2964ZM757.88 31.5439V34.3271H749.628V38.7217H757.465V41.6147H749.592V49H746.418V31.5439H757.88ZM772.089 31.5439V34.3271H763.837V38.7217H771.674V41.6147H763.801V49H760.627V31.5439H772.089Z" fill="#333333"/>
<path d="M480.099 72.6338V71.3887C481.197 71.7793 482.384 71.9746 483.658 71.9746C485.46 71.9746 486.361 71.3154 486.361 69.9971C486.361 68.874 485.697 68.3125 484.369 68.3125H483.021C480.829 68.3125 479.732 67.3604 479.732 65.4561C479.732 63.4541 481.136 62.4531 483.944 62.4531C485.165 62.4531 486.3 62.5996 487.35 62.8926V64.1377C486.3 63.7471 485.165 63.5518 483.944 63.5518C482.04 63.5518 481.087 64.1865 481.087 65.4561C481.087 66.5791 481.732 67.1406 483.021 67.1406H484.369C486.6 67.1406 487.716 68.0928 487.716 69.9971C487.716 72.0479 486.363 73.0732 483.658 73.0732C482.384 73.0732 481.197 72.9268 480.099 72.6338ZM489.181 70.6782C489.181 69.1011 490.221 68.3125 492.301 68.3125C492.97 68.3125 493.639 68.3613 494.308 68.459V67.7339C494.308 66.8501 493.617 66.4082 492.235 66.4082C491.444 66.4082 490.633 66.5303 489.803 66.7744V65.6758C490.633 65.4316 491.444 65.3096 492.235 65.3096C494.52 65.3096 495.663 66.1055 495.663 67.6973V73H494.901L494.432 72.2383C493.666 72.7461 492.831 73 491.927 73C490.096 73 489.181 72.2261 489.181 70.6782ZM492.301 69.4111C491.124 69.4111 490.536 69.8262 490.536 70.6562C490.536 71.4863 491 71.9014 491.927 71.9014C492.865 71.9014 493.658 71.6523 494.308 71.1543V69.5576C493.639 69.46 492.97 69.4111 492.301 69.4111ZM499.295 62.5264V73H497.94V62.5264H499.295ZM504.745 65.3096C506.932 65.3096 508.026 66.3911 508.026 68.5542C508.026 68.8618 508.004 69.1914 507.96 69.543H502.562C502.562 71.1152 503.48 71.9014 505.316 71.9014C506.19 71.9014 506.966 71.8037 507.645 71.6084V72.707C506.966 72.9023 506.141 73 505.169 73C502.528 73 501.207 71.689 501.207 69.0669C501.207 66.562 502.386 65.3096 504.745 65.3096ZM502.562 68.415H506.722C506.693 67.0674 506.034 66.3936 504.745 66.3936C503.377 66.3936 502.65 67.0674 502.562 68.415ZM513.512 72.6338V71.3887C514.61 71.7793 515.797 71.9746 517.071 71.9746C518.873 71.9746 519.774 71.3154 519.774 69.9971C519.774 68.874 519.11 68.3125 517.782 68.3125H516.434C514.242 68.3125 513.146 67.3604 513.146 65.4561C513.146 63.4541 514.549 62.4531 517.357 62.4531C518.578 62.4531 519.713 62.5996 520.763 62.8926V64.1377C519.713 63.7471 518.578 63.5518 517.357 63.5518C515.453 63.5518 514.5 64.1865 514.5 65.4561C514.5 66.5791 515.145 67.1406 516.434 67.1406H517.782C520.013 67.1406 521.129 68.0928 521.129 69.9971C521.129 72.0479 519.776 73.0732 517.071 73.0732C515.797 73.0732 514.61 72.9268 513.512 72.6338ZM522.96 64.0645H523.81L524.103 65.3096H526.183V66.4082H524.315V70.8247C524.315 71.5425 524.625 71.9014 525.245 71.9014H526.183V73H524.894C523.604 73 522.96 72.3091 522.96 70.9272V64.0645ZM527.545 70.6782C527.545 69.1011 528.585 68.3125 530.665 68.3125C531.334 68.3125 532.003 68.3613 532.672 68.459V67.7339C532.672 66.8501 531.981 66.4082 530.599 66.4082C529.808 66.4082 528.998 66.5303 528.167 66.7744V65.6758C528.998 65.4316 529.808 65.3096 530.599 65.3096C532.884 65.3096 534.027 66.1055 534.027 67.6973V73H533.265L532.796 72.2383C532.03 72.7461 531.195 73 530.292 73C528.46 73 527.545 72.2261 527.545 70.6782ZM530.665 69.4111C529.488 69.4111 528.9 69.8262 528.9 70.6562C528.9 71.4863 529.364 71.9014 530.292 71.9014C531.229 71.9014 532.022 71.6523 532.672 71.1543V69.5576C532.003 69.46 531.334 69.4111 530.665 69.4111ZM536.231 73V65.3096H537.147L537.389 66.291C538.062 65.6367 538.873 65.3096 539.82 65.3096V66.4375C538.902 66.4375 538.158 66.7622 537.586 67.4116V73H536.231ZM541.183 64.0645H542.032L542.325 65.3096H544.405V66.4082H542.538V70.8247C542.538 71.5425 542.848 71.9014 543.468 71.9014H544.405V73H543.116C541.827 73 541.183 72.3091 541.183 70.9272V64.0645ZM550.785 69.1255C550.785 70.9761 551.554 71.9014 553.092 71.9014C554.63 71.9014 555.399 70.9761 555.399 69.1255C555.399 67.314 554.63 66.4082 553.092 66.4082C551.554 66.4082 550.785 67.314 550.785 69.1255ZM549.43 69.1548C549.43 66.5913 550.65 65.3096 553.092 65.3096C555.533 65.3096 556.754 66.5913 556.754 69.1548C556.754 71.7134 555.533 72.9927 553.092 72.9927C550.66 72.9927 549.439 71.7134 549.43 69.1548ZM558.585 73V65.3096H559.5L559.742 66.291C560.528 65.6367 561.393 65.3096 562.335 65.3096C564.254 65.3096 565.213 66.2642 565.213 68.1733V73H563.858V68.1514C563.858 67.0088 563.29 66.4375 562.152 66.4375C561.375 66.4375 560.638 66.7622 559.94 67.4116V73H558.585ZM572.215 67.7339C572.215 70.561 573.248 71.9746 575.313 71.9746C577.325 71.9746 578.331 70.561 578.331 67.7339C578.331 64.9458 577.325 63.5518 575.313 63.5518C573.248 63.5518 572.215 64.9458 572.215 67.7339ZM570.787 67.7778C570.787 64.228 572.296 62.4531 575.313 62.4531C578.277 62.4531 579.759 64.228 579.759 67.7778C579.759 71.3081 578.277 73.0732 575.313 73.0732C572.296 73.0732 570.787 71.3081 570.787 67.7778ZM581.048 62.5264H588.006V63.625L583.597 73H582.125L586.681 63.625H581.048V62.5264ZM593.463 73V62.5264H594.818L601.227 70.9639V62.5264H602.508V73H601.153L594.745 64.4893V73H593.463ZM605.848 69.1255C605.848 70.9761 606.617 71.9014 608.155 71.9014C609.693 71.9014 610.462 70.9761 610.462 69.1255C610.462 67.314 609.693 66.4082 608.155 66.4082C606.617 66.4082 605.848 67.314 605.848 69.1255ZM604.493 69.1548C604.493 66.5913 605.714 65.3096 608.155 65.3096C610.597 65.3096 611.817 66.5913 611.817 69.1548C611.817 71.7134 610.597 72.9927 608.155 72.9927C605.724 72.9927 604.503 71.7134 604.493 69.1548ZM612.55 65.3096H614.015L616.219 71.3374L618.409 65.3096H619.874L616.747 73H615.487L612.55 65.3096ZM623.976 73V71.9014C627.857 69.2305 629.798 67.1064 629.798 65.5293C629.798 64.2109 628.968 63.5518 627.308 63.5518C626.234 63.5518 625.221 63.8203 624.269 64.3574V63.1855C625.221 62.6973 626.234 62.4531 627.308 62.4531C629.872 62.4531 631.153 63.4785 631.153 65.5293C631.153 67.3359 629.408 69.46 625.917 71.9014H631.153V73H623.976ZM634.164 67.7339C634.164 70.561 635.196 71.9746 637.262 71.9746C639.273 71.9746 640.279 70.561 640.279 67.7339C640.279 64.9458 639.273 63.5518 637.262 63.5518C635.196 63.5518 634.164 64.9458 634.164 67.7339ZM632.735 67.7778C632.735 64.228 634.244 62.4531 637.262 62.4531C640.226 62.4531 641.708 64.228 641.708 67.7778C641.708 71.3081 640.226 73.0732 637.262 73.0732C634.244 73.0732 632.735 71.3081 632.735 67.7778ZM642.96 73V71.9014C646.842 69.2305 648.783 67.1064 648.783 65.5293C648.783 64.2109 647.953 63.5518 646.292 63.5518C645.218 63.5518 644.205 63.8203 643.253 64.3574V63.1855C644.205 62.6973 645.218 62.4531 646.292 62.4531C648.856 62.4531 650.138 63.4785 650.138 65.5293C650.138 67.3359 648.392 69.46 644.901 71.9014H650.138V73H642.96ZM653.148 67.7339C653.148 70.561 654.181 71.9746 656.246 71.9746C658.258 71.9746 659.264 70.561 659.264 67.7339C659.264 64.9458 658.258 63.5518 656.246 63.5518C654.181 63.5518 653.148 64.9458 653.148 67.7339ZM651.72 67.7778C651.72 64.228 653.229 62.4531 656.246 62.4531C659.21 62.4531 660.692 64.228 660.692 67.7778C660.692 71.3081 659.21 73.0732 656.246 73.0732C653.229 73.0732 651.72 71.3081 651.72 67.7778Z" fill="#333333"/>
</svg>
